<svg width="5120" height="1024" viewBox="0 0 5120 1024" fill="none" xmlns="http://www.w3.org/2000/svg">
<g clip-path="url(#clip0_1_117)">
<path d="M2651.5 -3C2480.3 149.8 2378.5 56.6667 2349 -9L2228.5 -3C2436.1 194.2 2605.67 79.8333 2664.5 -2L2651.5 -3Z" fill="url(#paint0_linear_1_117)"/>
<path d="M2375.5 303C2489.9 310.6 2591.17 235.833 2627.5 197.5L2689 139.5L2839 40.5L2846.5 49.5L2799 84C2772.17 98.3333 2713.5 133.4 2693.5 159C2673.5 184.6 2638.83 222.667 2624 238.5C2605.83 257.667 2556.9 299.8 2506.5 315C2456.1 330.2 2398.17 313.333 2375.5 303Z" fill="url(#paint1_linear_1_117)"/>
<path d="M2781 89.5C2832.6 70.7 2887.83 13.6667 2909 -12.5L2847.5 -6.5L2832.5 13.5L2810.5 40L2785 66L2758 85.5L2718 111.5L2681 136.5L2648 163L2616.5 191.5L2593.5 210C2575.33 221.333 2526.9 246 2478.5 254C2430.1 262 2376.33 247.333 2355.5 239L2395 258.5C2453.8 283.7 2544.17 252.667 2582 234L2620.5 208C2652.5 176.333 2729.4 108.3 2781 89.5Z" fill="url(#paint2_linear_1_117)"/>
<path d="M2998 108C2980 142 2948.5 172.5 2935 183.5L2932 185.5L2925.5 189.5L2915.5 196L2906.5 201L2888.5 210.5L2870.5 217.5L2821 241L2772.5 269L2736 298.5L2710 324.5C2699.33 331.5 2677.9 345.5 2677.5 345.5C2677.1 345.5 2649.33 355.833 2635.5 361L2572.5 368L2538.5 364L2528.5 362.5C2614.5 357.3 2670 326.667 2687 312L2718.5 283L2754 250L2777 233.5L2807 217.5L2842.5 198.5L2862.5 183.5C2880.9 165.9 2928.17 125.833 2949.5 108C2969 93.6667 3011.1 60.5 3023.5 42.5C3035.9 24.5 3064 6 3076.5 -1L3079.5 8L3059.5 21C3046.5 35.8333 3016 74 2998 108Z" fill="url(#paint3_linear_1_117)"/>
<path d="M2707.5 321C2661.1 366.6 2568.83 367.667 2528.5 362.5C2625.3 388.1 2700.17 341.167 2725.5 314.5L2748 294L2767 279L2779.5 270L2793.5 260.5L2815 248L2834 239L2858.5 228.5L2874.5 222L2900.5 208.5L2935 183.5L2915 195.5C2889.33 206.333 2835.7 229.2 2826.5 234C2817.3 238.8 2797.33 249.667 2788.5 254.5C2780.83 257.667 2753.9 275.4 2707.5 321Z" fill="#F89A6E"/>
<path d="M2253.5 345.5C2285.67 372.667 2362.1 429 2410.5 437C2386.17 438.667 2320.7 422.7 2253.5 345.5Z" fill="#E08C7A"/>
<path d="M1979.14 -78.4331C1968.49 -15.3134 2035.12 91.5768 2069.76 137.132L2096.37 168.833L2119.19 194.193L2174.95 248.437L2226.29 290L2251 278.729L2171.79 118.112C2114.75 52.5966 2000.18 -79.2784 1998.15 -82.6599C1996.12 -86.0413 1990.55 -88.2955 1988.01 -89L1979.14 -78.4331Z" fill="url(#paint4_linear_1_117)"/>
<path d="M2239 213C2255 244.6 2288.67 288.167 2303.5 306L2289.5 327L2218.5 281C2199.17 247.333 2155.5 176.2 2135.5 161C2115.5 145.8 2081.17 82 2066.5 52L2015.5 -17C2026.3 -10.2 2124.17 82.3333 2160.5 113.5C2180 133.5 2223 181.4 2239 213Z" fill="url(#paint5_linear_1_117)"/>
<path d="M2303.5 306C2229.5 308.8 2146.5 221.5 2108 181.5C2129 210 2211.83 285.167 2257 317.5C2349.4 383.5 2427.67 393.833 2454.5 391.5C2385.7 377.9 2325.17 328.833 2303.5 306Z" fill="#FFA16B"/>
<path d="M2771.87 333.923C2891.96 297.246 3072.15 83.6671 3088 75.5C3116.67 63.8333 3157.7 64.2 3092.5 159C3030.78 248.736 2861.45 310.606 2771.87 333.923C2766.98 335.418 2762.18 336.619 2757.5 337.5C2762.01 336.432 2766.82 335.239 2771.87 333.923Z" fill="url(#paint6_linear_1_117)"/>
<path d="M2712.5 418.5C2762.9 424.1 2850.83 395.167 2888.5 380L3055.5 250L3094.5 223L3076 115C3068.67 126.167 3053.6 153 3052 171C3050.4 189 3031.33 205.167 3022 211C3007.2 219.8 2990.83 234.333 2984.5 240.5C2944.5 294.1 2908.83 328.167 2896 338.5C2827.2 398.5 2745 416.833 2712.5 418.5Z" fill="url(#paint7_linear_1_117)"/>
<path d="M3077 243C3025.8 301.8 2930 358.833 2888.5 380C2908.5 363 2958.9 319.8 3000.5 283C3042.1 246.2 3068.83 193.667 3077 172V243Z" fill="url(#paint8_linear_1_117)"/>
<path d="M2843 412C2815.4 418.4 2775.83 459 2759.5 478.5L2879.5 430.5L2978 385L3018 343.5L2843 412Z" fill="url(#paint9_linear_1_117)"/>
<path d="M2985 376C2856 479.5 2731 489.5 2727 488.5L2762 471.5C2769.17 469.167 2784 464.6 2786 465C2788.5 465.5 2827 451 2842 441.5C2854 433.9 2946.67 393 2985 376Z" fill="#F7E090"/>
<path d="M3164.5 18C3145.3 8.39998 3097.5 78.6666 3076 115L3083 162H3086L3080.5 170.5L3224.5 121C3283.33 93.1667 3401.9 37.1 3405.5 35.5C3409.1 33.9 3404 -1.16667 3401 -18.5L3259 -22.5C3235.5 -5.00001 3183.7 27.6 3164.5 18Z" fill="#6C778B"/>
<path d="M3198.5 74C3210.5 -11.6 3122.5 103.667 3077 172V243L3340.5 89.5C3377.33 104 3463.5 105.3 3513.5 -5.50001C3576 -144 3401 100.5 3440.5 2C3480 -96.5 3229.5 128.5 3326 26.5C3422.5 -75.5 3183.5 181 3198.5 74Z" fill="#FB886D"/>
<path d="M1941.5 69C1916.5 40 2046 123 2057.5 129.5L2058 130L2065.5 199.5L2055.5 198C1990.83 163.833 1860.6 94.6 1857 91C1852.5 86.5 1827 92 1749 -15C1671 -122 1885.5 74 1836.5 1.50001C1787.5 -71 1966.5 98 1941.5 69Z" fill="#0B3659"/>
<path d="M3093.5 -2L3079.5 8L3075 0L3077.5 -3L3093.5 -2Z" fill="#0D3556"/>
</g>
<defs>
<linearGradient id="paint0_linear_1_117" x1="2447" y1="72.5" x2="2446.5" y2="106.15" gradientUnits="userSpaceOnUse">
<stop stop-color="#FFA07C"/>
<stop offset="1" stop-color="#FFE2B9"/>
</linearGradient>
<linearGradient id="paint1_linear_1_117" x1="2827.5" y1="65.5" x2="2376" y2="303.5" gradientUnits="userSpaceOnUse">
<stop offset="0.0990326" stop-color="#E7997D"/>
<stop offset="0.14352" stop-color="#DF9081"/>
<stop offset="0.225754" stop-color="#D48D7C"/>
<stop offset="0.338749" stop-color="#B88A88"/>
<stop offset="0.45905" stop-color="#BC8580"/>
<stop offset="0.607767" stop-color="#AD8387"/>
<stop offset="0.747804" stop-color="#A18488"/>
<stop offset="0.881015" stop-color="#807687"/>
<stop offset="1" stop-color="#3C6888"/>
</linearGradient>
<linearGradient id="paint2_linear_1_117" x1="2879" y1="-13" x2="2361" y2="242.5" gradientUnits="userSpaceOnUse">
<stop stop-color="#437290"/>
<stop offset="0.0831676" stop-color="#45718A"/>
<stop offset="0.152104" stop-color="#46738B"/>
<stop offset="0.249572" stop-color="#487289"/>
<stop offset="0.346788" stop-color="#50718C"/>
<stop offset="0.445276" stop-color="#4B748E"/>
<stop offset="0.5485" stop-color="#4B738D"/>
<stop offset="0.644396" stop-color="#4D748E"/>
<stop offset="0.736107" stop-color="#436F8A"/>
<stop offset="0.807398" stop-color="#396683"/>
<stop offset="0.89392" stop-color="#235377"/>
<stop offset="0.937486" stop-color="#1B4C6D"/>
<stop offset="0.972929" stop-color="#174869"/>
<stop offset="1" stop-color="#114263"/>
</linearGradient>
<linearGradient id="paint3_linear_1_117" x1="3074.5" y1="6.5" x2="2534.5" y2="363" gradientUnits="userSpaceOnUse">
<stop offset="0.0198024" stop-color="#0D3556"/>
<stop offset="0.0489111" stop-color="#174060"/>
<stop offset="0.0855192" stop-color="#154062"/>
<stop offset="0.132302" stop-color="#1E4C6D"/>
<stop offset="0.173469" stop-color="#2D5A79"/>
<stop offset="0.204449" stop-color="#406E8F"/>
<stop offset="0.237679" stop-color="#3F6C8B"/>
<stop offset="0.285367" stop-color="#47708E"/>
<stop offset="0.355433" stop-color="#4F738E"/>
<stop offset="0.424127" stop-color="#60798D"/>
<stop offset="0.477906" stop-color="#6F7C8D"/>
<stop offset="0.536339" stop-color="#7B7E8F"/>
<stop offset="0.630075" stop-color="#8D838E"/>
<stop offset="0.727837" stop-color="#9F848B"/>
<stop offset="0.825295" stop-color="#8C8899"/>
<stop offset="0.897068" stop-color="#8F848A"/>
<stop offset="0.947235" stop-color="#857C91"/>
<stop offset="1" stop-color="#70758B"/>
</linearGradient>
<linearGradient id="paint4_linear_1_117" x1="1993.71" y1="-51.6636" x2="2238.35" y2="249.794" gradientUnits="userSpaceOnUse">
<stop stop-color="#082F4E"/>
<stop offset="0.0908285" stop-color="#0A3150"/>
<stop offset="0.246149" stop-color="#093252"/>
<stop offset="0.389152" stop-color="#093759"/>
<stop offset="0.493469" stop-color="#1F5172"/>
<stop offset="0.645317" stop-color="#527591"/>
<stop offset="0.765657" stop-color="#71778C"/>
<stop offset="0.858004" stop-color="#998985"/>
<stop offset="0.964855" stop-color="#9F6B6F"/>
</linearGradient>
<linearGradient id="paint5_linear_1_117" x1="2042.5" y1="11" x2="2310.5" y2="317.5" gradientUnits="userSpaceOnUse">
<stop offset="0.0273823" stop-color="#103B5D"/>
<stop offset="0.089758" stop-color="#245073"/>
<stop offset="0.215062" stop-color="#3B6889"/>
<stop offset="0.303541" stop-color="#4D768F"/>
<stop offset="0.419709" stop-color="#677B93"/>
<stop offset="0.50723" stop-color="#8B8091"/>
<stop offset="0.569951" stop-color="#A28388"/>
<stop offset="0.656853" stop-color="#E48476"/>
<stop offset="0.736061" stop-color="#F88574"/>
<stop offset="0.818702" stop-color="#FB8C8A"/>
<stop offset="0.911723" stop-color="#FD9071"/>
<stop offset="0.962691" stop-color="#FFA16B"/>
</linearGradient>
<linearGradient id="paint6_linear_1_117" x1="3084.5" y1="108" x2="2764" y2="330.5" gradientUnits="userSpaceOnUse">
<stop offset="0.0537212" stop-color="#0F3B58"/>
<stop offset="0.136509" stop-color="#0C395A"/>
<stop offset="0.249646" stop-color="#0F3D5F"/>
<stop offset="0.385295" stop-color="#215374"/>
<stop offset="0.494439" stop-color="#215471"/>
<stop offset="0.606183" stop-color="#436F88"/>
<stop offset="0.704994" stop-color="#787E8C"/>
<stop offset="0.856497" stop-color="#DA9484"/>
<stop offset="1" stop-color="#D8B6AC"/>
</linearGradient>
<linearGradient id="paint7_linear_1_117" x1="3084.5" y1="136.5" x2="2718" y2="419" gradientUnits="userSpaceOnUse">
<stop offset="0.0556095" stop-color="#6C778B"/>
<stop offset="0.138493" stop-color="#6D8091"/>
<stop offset="0.238739" stop-color="#8D838C"/>
<stop offset="0.348255" stop-color="#B78586"/>
<stop offset="0.433451" stop-color="#E0827A"/>
<stop offset="0.520828" stop-color="#F78373"/>
<stop offset="0.630039" stop-color="#FF936D"/>
<stop offset="0.731681" stop-color="#FE9E76"/>
<stop offset="0.813561" stop-color="#F9A87C"/>
<stop offset="1" stop-color="#FAA76E"/>
</linearGradient>
<linearGradient id="paint8_linear_1_117" x1="3077" y1="207" x2="2884" y2="380" gradientUnits="userSpaceOnUse">
<stop offset="0.0807094" stop-color="#FB886D"/>
<stop offset="0.207197" stop-color="#FF8C71"/>
<stop offset="0.318906" stop-color="#FC8F70"/>
<stop offset="0.451798" stop-color="#FA8E64"/>
<stop offset="0.578563" stop-color="#FFA176"/>
<stop offset="0.687376" stop-color="#F3A565"/>
<stop offset="0.82569" stop-color="#F6B66E"/>
<stop offset="1" stop-color="#FFB473"/>
</linearGradient>
<linearGradient id="paint9_linear_1_117" x1="3001" y1="355.5" x2="2765" y2="471.5" gradientUnits="userSpaceOnUse">
<stop stop-color="#1F3C5F"/>
<stop offset="0.0833431" stop-color="#275576"/>
<stop offset="0.181246" stop-color="#4C6E89"/>
<stop offset="0.317691" stop-color="#727A8D"/>
<stop offset="0.500702" stop-color="#AA7D84"/>
<stop offset="0.693225" stop-color="#EF877A"/>
<stop offset="0.842569" stop-color="#FF956E"/>
<stop offset="1" stop-color="#FFB89C"/>
</linearGradient>
<clipPath id="clip0_1_117">
<rect width="5120" height="1024" fill="white"/>
</clipPath>
</defs>
</svg>
