<svg width="5120" height="1024" viewBox="0 0 5120 1024" fill="none" xmlns="http://www.w3.org/2000/svg">
<g clip-path="url(#clip0_1_117)">
<path d="M2225.5 479C2195.67 453.5 2133.9 400.4 2125.5 392L2141.5 462.5L2225.5 479Z" fill="#F08C82"/>
<path d="M2126 365C2108.5 324.5 2043.5 294.5 2040 292L2029.5 480.5L2177 463C2165.83 443.833 2140 397.4 2126 365Z" fill="#FE8B6E"/>
<path d="M2090.5 453C2078.33 448.167 2049.5 434.8 2031.5 420L2008.5 440.5L2121.5 486L2090.5 453Z" fill="#F8B16F"/>
<path d="M2124 478.5C2107.2 481.7 2081.33 456.833 2070.5 444L2158 450C2228 454.8 2291.5 495.529 2301.5 522C2321.9 576 2424.33 613.5 2473 625.5L2420.5 621L2360.5 620C2322.9 626 2301.67 596.667 2291.5 583L2244.5 549L2124 478.5Z" fill="#FEE7A4"/>
<path d="M2108 471.5C2066 467.5 2039.83 414.833 2032 389L1995 512.5L2069.5 548C2129 564.5 2249.8 587.6 2257 548C2264.2 508.4 2213 493.833 2186.5 491.5C2181.33 486.833 2167.6 476.3 2154 471.5C2140.4 466.7 2117.67 469.5 2108 471.5Z" fill="#FF8665"/>
<path d="M3012.5 400.5C3070.1 312.1 3099.83 312.667 3107.5 324V479L2887 570.5L2865 505C2890.17 507 2954.9 488.9 3012.5 400.5Z" fill="#FFD893"/>
<path d="M3107.5 324C3127.67 320.5 3161.1 317.5 3133.5 333.5C3103.27 351.023 3255.74 272.592 3244.54 290.894C3297.02 249.316 3400.72 171.649 3377 212.5C3341 274.5 3497.5 37.5 3455 157C3412.5 276.5 3759 12 3681.5 93C3604 174 3891 -61 3797.5 60.5C3704 182 4164 -76 4069 26C3974 128 4554 -62.5 4307 46C4060 154.5 4866.5 -125 4715 -8.50001C4563.5 108 5152 -112.5 4857.5 33.5C4563 179.5 5625.5 -264 5229 140.5C4832.5 545 4921.5 457.5 4758 490C4627.2 516 3571.83 451.833 3060.5 416.5L3107.5 324Z" fill="#FFD893"/>
<path d="M2597.5 667.5C2540.3 669.1 2514 704.833 2508 722.5L3131 794L3079.5 399.5C3066.7 395.5 3041.5 430.167 3030.5 448C2994.9 490 2941.33 501.167 2919 501.5C2853.4 498.7 2819.33 509.333 2810.5 515C2790.67 526.833 2748.2 558.1 2737 588.5C2725.8 618.9 2698 641.5 2685.5 649C2645.9 634.2 2610.33 655.167 2597.5 667.5Z" fill="#FE9E6C"/>
<path d="M2305 593.5C2223.5 453.5 2029.5 499.5 2009 494.5L2066.5 643.5L2417 683C2407.67 661.167 2382.2 617.3 2355 616.5C2327.8 615.7 2310.33 600.833 2305 593.5Z" fill="#F25C5E"/>
<path d="M3079.5 399.5L3100.5 407C3141.83 361.333 3218.9 286.1 3196.5 350.5C3168.5 431 3333.5 207.5 3283.5 311.5C3233.5 415.5 3453 153 3386.5 268C3320 383 3614.5 88.5 3570 190C3525.5 291.5 3785 -26 3682.5 137C3580 300 4166 -74.5 3963.5 82.5C3761 239.5 4350.5 -80 4097.5 124C3844.5 328 4819 -222.5 4495 -3.50003C4171 215.5 4932 -91.5 4677.5 62C4423 215.5 5267 -249.5 5125.5 24C5017.13 233.468 5191.19 166.954 5275.26 125.901C5299.81 112.785 5315.15 104.631 5316.5 104C5318.26 103.181 5300.96 113.351 5275.26 125.901C5190.84 171.002 4997.46 274.768 4889 333L3060 570L3079.5 399.5Z" fill="#FE9E6C"/>
<path d="M2158 523.74C2100.91 457.571 2075.35 494.375 2071 492.809C2078.1 513.56 2089.85 559.369 2090.94 560.935C2092.02 562.501 2137.01 535.485 2158 523.74Z" fill="#FF8665"/>
<path d="M2267 616C2246.5 573.5 2243 586.5 2240 584.5L2223.5 621L2317.5 693.5L2503.5 726C2500.67 722 2490.8 708.1 2474 684.5C2457.2 660.9 2441 650.667 2435 648.5C2424.33 644.167 2398.4 637.3 2380 644.5C2361.6 651.7 2341 642.5 2333 637C2311.8 618.6 2284.17 621 2273 624.5L2267 616Z" fill="#F6EE99"/>
<path d="M2382.5 646.5C2360.1 655.3 2331.17 646.5 2319.5 641L2315.5 665.5L2493.5 732.5L2501 709.5C2487 708.5 2452.5 662.5 2449 660C2445.5 657.5 2410.5 635.5 2382.5 646.5Z" fill="#FC996C"/>
<path d="M2101.5 516C2067 491.5 2038 498 2030.5 496.5L2045.5 626L2298 680.5C2298.33 671.333 2297.3 647.6 2290.5 626C2283.7 604.4 2268.33 608.333 2261.5 613C2255.1 580.6 2216.17 560.833 2197.5 555C2167.1 513.4 2120.83 511.667 2101.5 516Z" fill="#F75D5D"/>
<path d="M2093.5 547.5C2055.5 508 2036 556 2032 558L2037.5 668.5L2602.5 860L2632.5 756L2637.5 709.5L2567 695C2556.33 693.667 2531.7 692.8 2518.5 700C2505.3 707.2 2480.67 707.667 2470 707C2452.8 657.8 2382.17 657.167 2349 663C2339 650.833 2315.1 628 2299.5 634C2283.9 640 2270 627.5 2265 620.5C2256.2 606.5 2239.33 605.667 2232 607C2200.8 611.4 2171.67 580.833 2161 565C2147.4 522.2 2110.33 535.5 2093.5 547.5Z" fill="#F75D5D"/>
<path d="M2691.5 701C2605.1 693 2545.83 750.333 2527 780L2674.5 849L3012.5 697.5L2999 566C2959.8 546.8 2911.67 567.333 2892.5 580C2823.7 564 2784.5 619 2773.5 648.5C2743.1 642.5 2706.17 681 2691.5 701Z" fill="#F45B5E"/>
<path d="M3040 541.5C3006.8 533.1 2986.17 572 2980 592.5L3080.5 578.5V516.5C3068.5 510.9 3048.5 530.833 3040 541.5Z" fill="#773F58"/>
<path d="M3104 536.5L3080.5 516.5L3077 549L3104 536.5Z" fill="#773F58"/>
<path d="M2828.5 629.5C2798.1 678.7 2726.5 734.667 2694.5 756.5L3121.5 824L3079 541.5C3069.4 536.7 3058.33 549.833 3054 557C3026.8 549.4 2995.33 569.167 2983 580C2955 566.8 2921.33 586.833 2908 598.5C2894.17 588.333 2858.9 580.3 2828.5 629.5Z" fill="#ED5C62"/>
<path d="M3165.5 495C3180.3 466.6 3114 514.167 3079 541.5L3062 572L3131 734L4667.5 681.5L5245 256.5C5125.5 280.833 4945.9 292.8 5183.5 146C5480.5 -37.5 4801 172 5110 65C5419 -42 4692.5 144 4919 14.5C5145.5 -115 4414.5 129 4637 14.5C4859.5 -100 4112.5 168 4306.5 69C4500.5 -30 3900 199 4081 122.5C4262 46 3708 259 3891.5 122.5C4075 -14 3588 283.5 3637 178.5C3686 73.5 3500 335 3540.5 264.5C3581 194 3313.5 456 3374.5 392C3435.5 328 3231.5 495 3289.5 430.5C3347.5 366 3147 530.5 3165.5 495Z" fill="#ED5C62"/>
<path d="M3204 547C3218 519.8 3133.17 553.333 3089 573.5L3052.5 649.5L3416 862L5108.5 386C5055.5 397 4987.5 395.3 5139.5 300.5C5329.5 182 5037.5 350.5 5151 196.5C5264.5 42.5 5007.5 303 5108.5 149C5209.5 -5 4817 272 4942.5 120.5C5068 -31 4735 190.5 4873.5 79C5012 -32.5 4407.5 241.5 4572.5 79C4737.5 -83.5 4202.5 224.5 4279.5 149C4356.5 73.5 4079 287.5 4175.5 149C4272 10.5 3888.5 316 3963 217.5C4037.5 119 3792.5 362.5 3877.5 273.5C3962.5 184.5 3589.5 364.5 3747 287.5C3904.5 210.5 3547 381.5 3611 273.5C3675 165.5 3381 471 3416 409.5C3451 348 3269.5 543 3304 478.5C3338.5 414 3186.5 581 3204 547Z" fill="#FF7F66"/>
<path d="M2786.5 715.5L2781.5 767.5L3064.5 724C3072.5 681 3088.2 593 3087 585C3085.8 577 3037.83 600.667 3014 613.5L2900 643.5L2786.5 715.5Z" fill="#F2595C"/>
<path d="M3203 601.5C3181.8 583.1 3112.5 603.833 3080.5 616.5L3068.5 672L3246 724L3547 748.5C3792.33 747.667 4306.4 741.6 4400 724C4493.6 706.4 5004 588.667 5247.5 532L5189 368C5172.83 368 5137.1 351.3 5123.5 284.5C5106.5 201 5036 347.5 5026.5 221C5017 94.5 4907.5 284.5 4912.5 181.5C4917.5 78.5 4740 243 4732.5 181.5C4725 120 4552.5 292 4554 181.5C4555.5 71 4474 295 4473 163.5C4472 32 4328 184.5 4356 107C4384 29.5 4100.5 342.5 4103 284.5C4105.5 226.5 4011.5 368 4004 307.5C3996.5 247 3857.5 411.5 3850 368C3842.5 324.5 3712.5 419.5 3717.5 368C3721.5 326.8 3605.5 411.167 3547 458.5H3432.5L3315.5 545.5C3286.83 571.833 3224.2 619.9 3203 601.5Z" fill="#FEEAAB"/>
<path d="M2681 729.5C2723.17 728.833 2815.8 713.3 2849 656.5C2857.83 641.5 2889 613.3 2943 620.5C2951.5 621.633 2970.8 623.6 2980 610C2986 598 3012.6 572.5 3071 566.5L3089 573.5L3084.5 610L3073.5 604C3052 611 3014 626.5 3003.5 635.5C2997.08 641 2985 649.8 2965 645C2943 639.72 2904.87 653 2880 684.5C2868.35 699.25 2837.44 728.437 2801.9 734.947C2820.26 731.755 2851.34 721.843 2873 699.5C2898.2 673.5 2970.5 683 3003.5 691L2943 775L2710.5 755.5L2681 729.5Z" fill="#FF7F66"/>
<path d="M2276.5 660C2261.7 628.8 2216.33 630 2195.5 634.5L2269 711.5L2335.5 714.5C2322 709.333 2291.3 691.2 2276.5 660Z" fill="#FFA06E"/>
<path d="M2766.5 743.5C2760 739 2706 740.5 2704 740.5L2801.5 811L2845.5 743.5C2821.33 745 2771.7 747.1 2766.5 743.5Z" fill="#F4595D"/>
<path d="M1893.5 226C1878 207.5 1992 264 2041 293L2056.5 317.5L2085.5 580.5L1411.5 644C991.667 527.833 95.2 257.8 -132 107C-416 -81.5 612.5 350.5 -9.00015 30.5C-630.5 -289.5 1195.5 280 619.5 30.5C43.4999 -219 1841 350.5 1282.5 113C724 -124.5 1766.5 248.5 1665 125.5C1570.74 11.2731 1862.42 237.277 1891.69 260.487C1880.12 249.503 1908.33 243.705 1893.5 226Z" fill="#FE8B6E"/>
<path d="M2543 749C2516.6 723 2471 735.5 2451.5 745V789.5L2825 831L2878.5 748.5C2844.67 768.5 2768.6 796.9 2735 750.5C2701.4 704.1 2617.33 730.167 2579.5 749C2578.33 759.833 2569.4 775 2543 749Z" fill="#FF9F6D"/>
<path d="M1985.5 362C1970.3 330.8 2057.83 440.333 2079.5 462.5L2056.5 585.5C1448 585.5 185.5 521.5 165.5 521.5C140.5 521.5 340 320.5 -110.5 -59C-510.693 -396.122 347.385 14.4597 392.949 66.5485C555.291 100.172 981.9 197.108 583 74C43.4999 -92.5 1383 268 901.5 80C420 -108 2050 496 1672.5 245C1295 -6 2004.5 401 1985.5 362Z" fill="#FF8665"/>
<path d="M1754.5 400C1694.5 301.5 1878 417 2080 504.5L2099.5 542L2202.5 787L686.5 653C488.333 628 74.7998 574.1 5.99983 558.5C-80.0002 539 -180.5 372 -126.5 355C-72.5002 338 87.9998 259 -89.0002 107.5C-266 -44 590.5 394 65.4997 39C-459.5 -316 1012.5 408 454 129.5C-104.5 -149 1387 416.5 976 206C565 -4.50003 1589 400 1473 303.5C1357 207 1814.5 498.5 1754.5 400Z" fill="#F75D5D"/>
<path d="M2235 669C2189.8 590.6 2086.17 571 2040 571L2069 851L3091.5 822L3080.5 616.5C3056.83 624.5 3004.5 646.7 2984.5 671.5C2964.5 696.3 2932.83 704.5 2919.5 705.5C2896 706.333 2844.5 715.9 2826.5 747.5C2808.5 779.1 2745.33 783.667 2716 782C2701.17 787.333 2665.6 792 2642 768C2618.4 744 2585.83 738.333 2572.5 738.5C2567.67 738.5 2550.8 741.5 2522 753.5C2493.2 765.5 2470 748.5 2462 738.5C2429.6 700.1 2379.83 700.5 2359 705.5C2347 713 2325.5 708 2322.5 708C2281.7 720.8 2247.17 687.333 2235 669Z" fill="#FEEAAB"/>
<path d="M3131 657L3080 651L3055 699L3196.5 867.5L5198 802L5172 355L5004.5 455.5L4786 342.5L4606 372C4552.67 440 4418.8 529.3 4310 342.5C4201.2 155.7 4151.33 294 4140 386.5C4067.17 466 3931.6 610.3 3972 551.5C4012.4 492.7 3955.17 485.333 3921.5 489C3964.3 453.4 3827 451.833 3753 455.5C3751.4 396.7 3611.33 465.333 3541.5 507C3543.5 455.8 3448.33 500.333 3400.5 529C3349.3 485.4 3316.5 574.833 3306.5 625C3282.83 636.667 3227.7 654.9 3196.5 634.5C3165.3 614.1 3139.83 641 3131 657Z" fill="#FFA571"/>
<path d="M1903.5 621.5C1903.67 612.5 1931.3 590 2040.5 572L2055 631C2026.5 636.333 1969.2 647 1968 647C1966.8 647 1924.5 630 1903.5 621.5Z" fill="#FEEAAB"/>
<path d="M1869.5 495.5C1839.5 439 1906 532 2050.5 573.5L1986.5 707L11.1954 330.228C11.3915 330.943 10.9346 330.798 10 330L11.1954 330.228C9.71286 324.82 -29.0931 270.24 -181 77C-396 -196.5 228 350.5 -23.5002 43.5C-275 -263.5 793.5 449.5 373.5 113C-46.4999 -223.5 1426 462.5 1024 245.5C622 28.5 1879 618.5 1595.5 413.5C1312 208.5 1899.5 552 1869.5 495.5Z" fill="#FEEAAB"/>
<path d="M2152.5 658.5C2150.9 614.9 2063.83 602.333 2023.5 601.5L2073 894.5L3080 864.5V650.5C3056.4 648.9 3030.5 676.167 3020.5 690C3007 706.833 2968.7 739.8 2923.5 737C2878.3 734.2 2852.33 751.833 2845 761C2816.6 794.2 2775 807.56 2758 803.5C2724.5 795.5 2701.5 811.242 2690.5 815.5C2678.1 820.3 2654 809.5 2643.5 803.5C2617.67 787.333 2558.3 759.4 2527.5 777C2496.7 794.6 2465.33 798.333 2453.5 798C2453.9 789.2 2432 776.333 2421 771C2419.4 729 2355.33 728.167 2323.5 733L2299.5 725.5C2276.33 724.833 2226.6 716.7 2213 689.5C2199.4 662.3 2167 657.5 2152.5 658.5Z" fill="#FFA571"/>
<path d="M1736.5 500.5C1628.5 386 1986 608.5 1994.5 615L2079 687L88 504.5L-85 257.5C-50.1667 219.333 21.7999 152.2 30.9999 189C42.4999 235 793.5 394 272.5 236.5C-248.5 79 1350.5 525.5 905.5 305C460.5 84.5 1615 590 1367.5 419C1120 248 1844.5 615 1736.5 500.5Z" fill="#FFA571"/>
<path d="M1935 611C1963.33 608 2020.8 602 2024 602L2070 626.5L2071.5 662C2025.5 656.833 1931.9 646 1925.5 644C1919.1 642 1929.17 621.167 1935 611Z" fill="#FFA571"/>
<path d="M2090 658C2079.5 654 2045.5 650 2040.5 648.5L2031 730.5L2421.5 958L3074 894L3079.5 677.5C3046.7 680.3 3014.83 710.333 3003 725L2951.5 768.5C2912.7 746.1 2874 770.167 2859.5 785C2773.1 876.2 2677.17 855.667 2640 834C2595.2 802.8 2543.67 812.667 2523.5 821.5C2457.5 852.7 2368.33 805.167 2332 777.5C2277.2 772.3 2233.5 728.667 2218.5 707.5L2167.5 688C2145.17 679.333 2098.4 661.2 2090 658Z" fill="#FE6D5C"/>
<path d="M2510.5 837.5C2467.3 865.5 2418.5 853.5 2399.5 844L2394 910.5L2817.5 991.5L2852.5 833L2743 869L2714.5 865.5C2673.7 882.7 2628.17 864 2610.5 852.5C2560.5 820.9 2523 829.333 2510.5 837.5Z" fill="#FF7D67"/>
<path d="M1959.5 624.5C1974 629.5 2010.5 641.3 2040.5 648.5L2062 690L2015.5 926.5C1722 918.167 1126.4 898.8 1092 888C1049 874.5 578 881 476.5 863C375 845 -80.5003 727 -80.5003 704.5C-80.5003 682 -76.0003 512 -80.5003 426C-85.0003 340 -33.0003 401.5 -3.50031 401.5C-49.0003 263 98.4997 516.5 107.5 426C116.5 335.5 200 496.5 182 381C164 265.5 322.5 473.5 324.5 401.5C326.5 329.5 562.5 496.5 578 439.5C593.5 382.5 786.5 529.5 786.5 473.5C786.5 417.5 902 529.5 976.5 496.5C1051 463.5 1300 605.5 1275 529.5C1250 453.5 1473.5 640.5 1441 540C1408.5 439.5 1593 654.5 1640.5 568.5C1688 482.5 1842.5 681 1866.5 611.5C1885.7 555.9 1936.5 597 1959.5 624.5Z" fill="#FE6D5C"/>
<path d="M2217.5 742C2203.1 744.4 2187.5 741 2181.5 739V833.5L2396.5 875L2322 806C2258.8 806 2226 763.333 2217.5 742Z" fill="#FEA06D"/>
<path d="M2037 701.5V745L2103 1012H2616.5L2836 941.5C2807.5 915.333 2741.9 870.3 2707.5 899.5C2673.1 928.7 2623.5 901 2603 883.5C2591.83 869 2557.7 845.3 2510.5 866.5C2463.3 887.7 2429.5 866 2418.5 852.5C2411.5 842.833 2390.5 826.2 2362.5 837C2334.5 847.8 2308.17 827.167 2298.5 815.5C2232.1 810.3 2188.5 741.667 2175 708C2102.2 752.4 2070 718.167 2063 695.5L2037 701.5Z" fill="#8D495E"/>
<path d="M2234.5 822C2210.5 772.4 2141.17 780.333 2109.5 790.5V795L2128.5 938C2301.5 992.5 2648.2 1079.1 2651 989.5C2653.8 899.9 2569.5 891.167 2527 898C2495.5 906.333 2430.5 918 2422.5 898C2414.5 878 2366.5 875.667 2343.5 877C2317.17 879.333 2258.5 871.6 2234.5 822Z" fill="#AE6171"/>
<path d="M2092.5 763C2075.3 747.4 2047 737.5 2035 734.5L2026.5 1010H2727.5L2713.5 967C2687.67 976.833 2632.6 991.8 2619 973C2605.4 954.2 2548.33 944.833 2521.5 942.5C2503.33 941.833 2464 936.7 2452 921.5C2440 906.3 2392 908.167 2369.5 911C2331.5 910.167 2251.7 897.1 2236.5 851.5C2221.3 805.9 2167.17 790.5 2142 788.5C2132.67 786.5 2109.7 778.6 2092.5 763Z" fill="#6B3E55"/>
<path d="M3239.5 671.5C3222.7 644.7 3125.83 664.333 3079.5 677.5L3051.5 744L3170 926L4250.5 891.5L5150.5 879C5166.17 842.5 5191.4 748.9 5167 666.5C5142.6 584.1 5064.83 608.167 5029 630.5C4993.17 646.167 4888.3 652.6 4755.5 553C4622.7 453.4 4616.17 594.5 4629.5 677.5C4561.33 704.167 4407.5 732.1 4337.5 630.5C4267.5 528.9 4169.33 619.5 4129 677.5C4090.83 718 3998 769.5 3932 651.5C3866 533.5 3824.17 588.333 3811.5 630.5C3756.83 658.5 3644.2 689.6 3631 590C3617.8 490.4 3514.5 548.5 3464.5 590C3396.5 628.333 3256.3 698.3 3239.5 671.5Z" fill="#FE6D5C"/>
<path d="M1971.5 717L2037 701.5L2042.5 743L1971.5 717Z" fill="#8D495E"/>
<path d="M1887.5 713.5C1845.5 658.3 1977.33 707 2044 737L2047.5 781.5C2036.17 849.833 2010.5 986.1 1998.5 984.5C1986.5 982.9 1622.5 995.167 1442 1001.5C948.167 979.5 -47.8001 934.4 -81.0002 930C-114.2 925.6 -52.1669 849.167 -17.0002 811.5C-207 777.5 -75.5002 631 -81.0002 603C-86.5002 575 -148.5 567 59.9998 571C121.84 572.186 155.751 573.813 173.21 575.513C182.457 527.157 335.93 560.113 415.5 584C528.5 473 597.5 616 633.5 616C570.927 529.666 794.323 607.097 917.329 657.977C918.481 655.466 919.703 652.809 921 650C957 572 1057.67 636.167 1103.5 678C1071.9 605.6 1303.33 647.833 1423 678C1521.17 704.333 1705.2 744.1 1656 692.5C1594.5 628 1940 782.5 1887.5 713.5Z" fill="#6B3E55"/>
<path d="M3203 749.5L3087.5 717L3037.5 938L2937 1205L5151 1160L5248 889.5L5131 761H5073L4853 674.5L4778 761L4710 674.5L4625.5 717L4411.5 819C4369.5 770.833 4281.4 669.2 4265 648C4248.6 626.8 4230.5 706.833 4223.5 749.5C4175.33 753.333 4066.9 770.4 4018.5 808C3958 855 3765 724.5 3720 717C3684 711 3553.17 777.167 3523 717C3449.17 735.667 3366.2 675.7 3357 674.5C3347.8 673.3 3263.67 777.167 3203 749.5Z" fill="#021C35"/>
<path d="M1896 788.5C1900 692.9 1998 748.667 2046.5 788.5L2125.5 913L2205.5 1265C1479.83 1244.83 15.8998 1199.5 -34.5002 1179.5C-97.5002 1154.5 -79.5002 1001 -67.0002 983C-54.5002 965 -7.00019 817.5 -4.50019 832.5C-2.00019 847.5 -2.0002 875 63.4998 898C129 921 101.5 898 106.5 875C111.5 852 126.5 850 224.5 817.5C302.9 791.5 292.5 845 277.5 875H352.5C385 875 375.5 875 390.5 898C405.5 921 478.5 938 513.5 935.5C548.5 933 556.5 898 621.5 832.5C686.5 767 699.5 788.5 752.5 788.5C805.5 788.5 777.5 832.5 775 875C772.5 917.5 915.5 913 928.5 898C941.5 883 963.5 875 983.5 898C999.5 916.4 1074.17 915.667 1109.5 913C1113.67 900.333 1125 866.5 1137 832.5C1152 790 1262.5 744.5 1318 764.5C1373.5 784.5 1360.5 739.5 1370.5 797C1380.5 854.5 1438.5 890 1438.5 875C1438.5 863 1549.17 796.333 1604.5 764.5C1652.35 767.258 1734.6 774.215 1744.34 782.879C1767.56 770.758 1816.33 749.551 1826 756C1841 766 1891 908 1896 788.5Z" fill="#021C35"/>
<path d="M2742.5 880C2742.5 910.4 2686.83 957.333 2659 977L3082 869L3074.5 729C3039.7 756.6 3003.67 723.5 2990 703.5H2978C2980 719.5 2945.17 756.167 2927.5 772.5C2909.5 806.9 2877.33 808.167 2863.5 804.5L2812.5 872C2797.7 896.4 2759.67 887.5 2742.5 880Z" fill="#2B5C7D"/>
<path d="M2967 767L2929.5 858.5L3082 822L3075 732.5C3068.6 783.7 3051 765.5 3043 750C3036.2 736.4 3024.83 731.333 3020 730.5C3001.2 724.1 2976.83 752.167 2967 767Z" fill="#13476E"/>
<path d="M2178.5 870.5C2148 828 2087.5 794 2046.5 788.5L2033 1049.5H3087.5V717C3087.17 716.333 3084.6 722.7 3077 753.5C3069.4 784.3 3042.5 800 3031.5 796C3017.1 794.4 2978.5 813 2956 821C2914.5 834.5 2891 849.333 2880 858.5C2842.4 898.1 2817 911.667 2809 913.5C2784.2 916.3 2764 923.333 2757 926.5C2736.2 939.7 2702.67 954 2688.5 959.5L2584 986.5C2556.4 964.1 2522.83 970.5 2509.5 976.5C2465.1 1002.5 2444 981.667 2439 968C2437.4 965.2 2432.67 962.167 2430.5 961L2418.5 957.5C2401.3 955.1 2382 941.5 2374.5 935C2332.5 886.6 2280 879.833 2259 882.5C2210.6 895.7 2185.17 880 2178.5 870.5Z" fill="#021C35"/>
</g>
<defs>
<clipPath id="clip0_1_117">
<rect width="5120" height="1024" fill="white"/>
</clipPath>
</defs>
</svg>
