<svg width="5120" height="1024" viewBox="0 0 5120 1024" fill="none" xmlns="http://www.w3.org/2000/svg">
<g clip-path="url(#clip0_1_117)">
<path d="M2924 -48.5C2650.67 -44.8333 2098.8 -39.7 2078 -48.5L2156.5 285L2863.5 345.5L2924 -48.5Z" fill="#021C37"/>
<path d="M2654 -18.5C2551.83 -18.8333 2344.9 -19.3 2334.5 -18.5L2337.5 13L2432.5 90L2546 82L2648 13L2654 -18.5Z" fill="#174C66"/>
<path d="M2333.5 -22C2380.17 43 2510.5 134 2658.5 -22H2333.5Z" fill="#49718B"/>
<path d="M2363 -10C2399.5 33.7682 2504.61 95.0436 2633 -10H2363Z" fill="#062D4A"/>
<path d="M2577 -4.5C2546.17 22.1667 2465.1 59.5 2387.5 -4.5H2577Z" fill="#001E38"/>
<path d="M2165.5 49C2151 21 2067 -20 2063.5 -23L2057 19.5L2165.5 237L2537.5 300.5L2740 95C2684 69 2604.67 130.833 2572 165C2545.2 159.4 2508.83 183.667 2494 196.5C2447.17 197.833 2349 187.8 2331 137C2313 86.2 2257.83 74.5 2232.5 75C2215 75.6667 2177.1 71.4 2165.5 49Z" fill="#03213B"/>
<path d="M2605 170.5C2742 45 2825.5 36.5 2827.5 36.5L2708.5 268.5L2229 335L2031 55.5V-2.5L2071 -11C2087.8 23.8 2233.67 120.833 2304.5 165C2359 208.667 2495.4 270.9 2605 170.5Z" fill="#092D4B"/>
<path d="M2994.5 -15.5H2873L2834 45.5L2713.5 121.5L2553.5 266L2583 314.5L2883 140.5L2994.5 -15.5Z" fill="#021D38"/>
<path d="M2756 161C2668.8 257.4 2601 271.5 2578 266.5L2507 298.5L2533 332.5L2705 286.5L3038.5 13V-16C3010.33 -16 2944.3 -0.599998 2905.5 61C2866.7 122.6 2789.67 153.333 2756 161Z" fill="#04223E"/>
<path d="M2493.5 305.5C2546.17 307.333 2663.6 297.1 2712 241.5C2760.29 186.022 2816.25 174.716 2838.35 175.991L2760.5 327.5L2644 431L2230.5 318L2180.5 139L2237 172L2371 245.5L2404.5 256.5L2482 259.5L2596.5 216.5L2604.5 225.5L2493.5 305.5Z" fill="#0E3C5E"/>
<path d="M3019 7.5L3043 -18L3089 -4L3046.5 24.5L2986.5 111.5L2834 212L2665 338.5C2669.8 289.7 2755.67 212.167 2798 179.5L2834 160.5L2878.5 123L2953 60.5L3019 7.5Z" fill="#053050"/>
<path d="M2130 158L2040 77L2022.5 133L2170.5 318.5L2227.5 288L2130 158Z" fill="#052440"/>
<path d="M2098 158L2022.5 104.5L2069 296.5L2204.5 354L2231.5 291C2173.9 292.2 2118.5 202.833 2098 158Z" fill="#0B3659"/>
<path d="M3031.5 36.5C3046.17 26.6667 3076.3 6.7 3079.5 5.5L3099.5 12.5L3093.5 99L3004 90.5L3031.5 36.5Z" fill="#031E39"/>
<path d="M2993.5 88.5L3079 44.5L3086 68L3051.5 174L2946 168L2993.5 88.5Z" fill="#042642"/>
<path d="M2950 154C3010.4 146.4 3064.5 89.8333 3084 62.5L3079 391L2597 450.5L2657 349.5L2785.5 235.5L2950 154Z" fill="#093759"/>
<path d="M2166 314L2034.5 175.5L2006.5 816L3097.5 829.5V216C3016.17 219.5 2835.7 241.6 2764.5 302C2693.3 362.4 2596.5 366.5 2557 361C2437 363 2376 330.5 2360.5 314C2332.5 314 2259 250.5 2254.5 248.5C2250.9 246.9 2230.67 266.5 2221 276.5C2170.6 281.7 2129.67 233 2115.5 208L2166 314Z" fill="url(#paint0_linear_1_117)"/>
<path d="M3075.5 3C3073.9 3.4 3071.5 14.1667 3070.5 19.5L3086.5 59.5C3112.33 56.5 3167.2 51.3 3180 54.5C3196 58.5 3211.5 5 3208 -2.5C3204.5 -10 3154.5 -28.5 3151.5 -29.5C3148.5 -30.5 3077.5 2.5 3075.5 3Z" fill="#031E39"/>
<path d="M3126 35L3078.5 45L3075 56.5L3088 71.5L3126 35Z" fill="#042642"/>
<path d="M3242 -46C3238 -47.6 3133 28 3082 65L3083.5 67L3081 85.5C3208.67 84 3469.2 81.1 3478 81.5C3489 82 3521 -14.5 3521.5 -24.5C3522 -34.5 3247 -44 3242 -46Z" fill="#093759"/>
<path d="M3620 -65L3097.5 216L3085.5 292.5L3103.5 340L5350 472.5L5498 -140.5L3620 -65Z" fill="#244362"/>
<path d="M2051 -53C2036.5 -100.5 1995 -49.5 1952.5 -63.5C1371.83 -82.3334 206.3 -122.8 189.5 -134C172.7 -145.2 156.5 36.3333 150.5 128.5L1108 306.5L2051 373.5C2055.83 247.167 2062.6 -15 2051 -53Z" fill="#244362"/>
<path d="M2158 240.5C2066.67 186.667 1888.7 89.9 1907.5 133.5C1931 188 1584.5 -73.5 1689 45C1793.5 163.5 1460 -122.5 1576.5 -3.5C1660.61 82.4164 1529.18 -5.76962 1467.48 -44.3202C1459.35 -43.7516 1451.25 -46.5726 1443.5 -54C1430.29 -66.6496 1443.72 -59.1648 1467.48 -44.3202C1499.18 -46.5385 1531.41 -100.335 1546 -133.5L1825 -77L2078 79L2158 240.5Z" fill="#052440"/>
<circle cx="2557" cy="508" r="140" fill="url(#paint1_linear_1_117)"/>
<circle cx="2557" cy="508" r="120" fill="url(#paint2_linear_1_117)"/>
<circle cx="2557" cy="508" r="100" fill="#FFB078"/>
<circle cx="2557" cy="508" r="80" fill="#FDFACD"/>
<path d="M2651.5 -3C2480.3 149.8 2378.5 56.6667 2349 -9L2228.5 -3C2436.1 194.2 2605.67 79.8333 2664.5 -2L2651.5 -3Z" fill="url(#paint3_linear_1_117)"/>
<path d="M2375.5 303C2489.9 310.6 2591.17 235.833 2627.5 197.5L2689 139.5L2839 40.5L2846.5 49.5L2799 84C2772.17 98.3333 2713.5 133.4 2693.5 159C2673.5 184.6 2638.83 222.667 2624 238.5C2605.83 257.667 2556.9 299.8 2506.5 315C2456.1 330.2 2398.17 313.333 2375.5 303Z" fill="url(#paint4_linear_1_117)"/>
<path d="M2781 89.5C2832.6 70.7 2887.83 13.6667 2909 -12.5L2847.5 -6.5L2832.5 13.5L2810.5 40L2785 66L2758 85.5L2718 111.5L2681 136.5L2648 163L2616.5 191.5L2593.5 210C2575.33 221.333 2526.9 246 2478.5 254C2430.1 262 2376.33 247.333 2355.5 239L2395 258.5C2453.8 283.7 2544.17 252.667 2582 234L2620.5 208C2652.5 176.333 2729.4 108.3 2781 89.5Z" fill="url(#paint5_linear_1_117)"/>
<path d="M2998 108C2980 142 2948.5 172.5 2935 183.5L2932 185.5L2925.5 189.5L2915.5 196L2906.5 201L2888.5 210.5L2870.5 217.5L2821 241L2772.5 269L2736 298.5L2710 324.5C2699.33 331.5 2677.9 345.5 2677.5 345.5C2677.1 345.5 2649.33 355.833 2635.5 361L2572.5 368L2538.5 364L2528.5 362.5C2614.5 357.3 2670 326.667 2687 312L2718.5 283L2754 250L2777 233.5L2807 217.5L2842.5 198.5L2862.5 183.5C2880.9 165.9 2928.17 125.833 2949.5 108C2969 93.6667 3011.1 60.5 3023.5 42.5C3035.9 24.5 3064 6 3076.5 -1L3079.5 8L3059.5 21C3046.5 35.8333 3016 74 2998 108Z" fill="url(#paint6_linear_1_117)"/>
<path d="M2707.5 321C2661.1 366.6 2568.83 367.667 2528.5 362.5C2625.3 388.1 2700.17 341.167 2725.5 314.5L2748 294L2767 279L2779.5 270L2793.5 260.5L2815 248L2834 239L2858.5 228.5L2874.5 222L2900.5 208.5L2935 183.5L2915 195.5C2889.33 206.333 2835.7 229.2 2826.5 234C2817.3 238.8 2797.33 249.667 2788.5 254.5C2780.83 257.667 2753.9 275.4 2707.5 321Z" fill="#F89A6E"/>
<path d="M2253.5 345.5C2285.67 372.667 2362.1 429 2410.5 437C2386.17 438.667 2320.7 422.7 2253.5 345.5Z" fill="#E08C7A"/>
<path d="M1979.14 -78.4331C1968.49 -15.3134 2035.12 91.5768 2069.76 137.132L2096.37 168.833L2119.19 194.193L2174.95 248.437L2226.29 290L2251 278.729L2171.79 118.112C2114.75 52.5966 2000.18 -79.2784 1998.15 -82.6599C1996.12 -86.0413 1990.55 -88.2955 1988.01 -89L1979.14 -78.4331Z" fill="url(#paint7_linear_1_117)"/>
<path d="M2239 213C2255 244.6 2288.67 288.167 2303.5 306L2289.5 327L2218.5 281C2199.17 247.333 2155.5 176.2 2135.5 161C2115.5 145.8 2081.17 82 2066.5 52L2015.5 -17C2026.3 -10.2 2124.17 82.3333 2160.5 113.5C2180 133.5 2223 181.4 2239 213Z" fill="url(#paint8_linear_1_117)"/>
<path d="M2303.5 306C2229.5 308.8 2146.5 221.5 2108 181.5C2129 210 2211.83 285.167 2257 317.5C2349.4 383.5 2427.67 393.833 2454.5 391.5C2385.7 377.9 2325.17 328.833 2303.5 306Z" fill="#FFA16B"/>
<path d="M2771.87 333.923C2891.96 297.246 3072.15 83.6671 3088 75.5C3116.67 63.8333 3157.7 64.2 3092.5 159C3030.78 248.736 2861.45 310.606 2771.87 333.923C2766.98 335.418 2762.18 336.619 2757.5 337.5C2762.01 336.432 2766.82 335.239 2771.87 333.923Z" fill="url(#paint9_linear_1_117)"/>
<path d="M2712.5 418.5C2762.9 424.1 2850.83 395.167 2888.5 380L3055.5 250L3094.5 223L3076 115C3068.67 126.167 3053.6 153 3052 171C3050.4 189 3031.33 205.167 3022 211C3007.2 219.8 2990.83 234.333 2984.5 240.5C2944.5 294.1 2908.83 328.167 2896 338.5C2827.2 398.5 2745 416.833 2712.5 418.5Z" fill="url(#paint10_linear_1_117)"/>
<path d="M3077 243C3025.8 301.8 2930 358.833 2888.5 380C2908.5 363 2958.9 319.8 3000.5 283C3042.1 246.2 3068.83 193.667 3077 172V243Z" fill="url(#paint11_linear_1_117)"/>
<path d="M2843 412C2815.4 418.4 2775.83 459 2759.5 478.5L2879.5 430.5L2978 385L3018 343.5L2843 412Z" fill="url(#paint12_linear_1_117)"/>
<path d="M2985 376C2856 479.5 2731 489.5 2727 488.5L2762 471.5C2769.17 469.167 2784 464.6 2786 465C2788.5 465.5 2827 451 2842 441.5C2854 433.9 2946.67 393 2985 376Z" fill="#F7E090"/>
<path d="M3164.5 18C3145.3 8.39998 3097.5 78.6666 3076 115L3083 162H3086L3080.5 170.5L3224.5 121C3283.33 93.1667 3401.9 37.1 3405.5 35.5C3409.1 33.9 3404 -1.16667 3401 -18.5L3259 -22.5C3235.5 -5.00001 3183.7 27.6 3164.5 18Z" fill="#6C778B"/>
<path d="M3198.5 74C3210.5 -11.6 3122.5 103.667 3077 172V243L3340.5 89.5C3377.33 104 3463.5 105.3 3513.5 -5.50001C3576 -144 3401 100.5 3440.5 2C3480 -96.5 3229.5 128.5 3326 26.5C3422.5 -75.5 3183.5 181 3198.5 74Z" fill="#FB886D"/>
<path d="M1941.5 69C1916.5 40 2046 123 2057.5 129.5L2058 130L2065.5 199.5L2055.5 198C1990.83 163.833 1860.6 94.6 1857 91C1852.5 86.5 1827 92 1749 -15C1671 -122 1885.5 74 1836.5 1.50001C1787.5 -71 1966.5 98 1941.5 69Z" fill="#0B3659"/>
<path d="M3093.5 -2L3079.5 8L3075 0L3077.5 -3L3093.5 -2Z" fill="#0D3556"/>
<circle cx="4" cy="4" r="4" transform="matrix(-1 0 0 1 2832 146)" fill="#D0D1A5"/>
<circle cx="2" cy="2" r="2" transform="matrix(-1 0 0 1 2860 18)" fill="#DCE2E2"/>
<circle cx="2" cy="2" r="2" transform="matrix(-1 0 0 1 2754 15)" fill="#DCE2E2"/>
<circle cx="2" cy="2" r="2" transform="matrix(-1 0 0 1 2573 117)" fill="#DCE2E2"/>
<circle cx="2" cy="2" r="2" transform="matrix(-1 0 0 1 2520 137)" fill="#DCE2E2"/>
<circle cx="2" cy="2" r="2" transform="matrix(-1 0 0 1 2399 129)" fill="#DCE2E2"/>
<circle cx="2" cy="2" r="2" transform="matrix(-1 0 0 1 2369 188)" fill="#DCE2E2"/>
<circle cx="2" cy="2" r="2" transform="matrix(-0.995447 -0.0953197 -0.0953197 0.995447 2295.53 87.5454)" fill="#DCE2E2"/>
<circle cx="2" cy="2" r="2" transform="matrix(-0.995447 -0.0953197 -0.0953197 0.995447 2253.36 117.381)" fill="#DCE2E2"/>
<circle cx="2" cy="2" r="2" transform="matrix(-0.995447 -0.0953197 -0.0953197 0.995447 2181.36 38.3813)" fill="#DCE2E2"/>
<path d="M2808 102L2809.35 105.65L2813 107L2809.35 108.35L2808 112L2806.65 108.35L2803 107L2806.65 105.65L2808 102Z" fill="#D9D9D9"/>
<path d="M2686 14L2687.35 17.6495L2691 19L2687.35 20.3505L2686 24L2684.65 20.3505L2681 19L2684.65 17.6495L2686 14Z" fill="#D9D9D9"/>
<path d="M2444 128L2445.35 131.65L2449 133L2445.35 134.35L2444 138L2442.65 134.35L2439 133L2442.65 131.65L2444 128Z" fill="#D9D9D9"/>
<path d="M2438 163L2439.62 167.015L2444 168.5L2439.62 169.985L2438 174L2436.38 169.985L2432 168.5L2436.38 167.015L2438 163Z" fill="#D9D9D9"/>
<path d="M2302 141L2303.62 145.015L2308 146.5L2303.62 147.985L2302 152L2300.38 147.985L2296 146.5L2300.38 145.015L2302 141Z" fill="#D9D9D9"/>
<path d="M2661 93L2661.81 95.1897L2664 96L2661.81 96.8103L2661 99L2660.19 96.8103L2658 96L2660.19 95.1897L2661 93Z" fill="#D9D9D9"/>
<path d="M2225.5 479C2195.67 453.5 2133.9 400.4 2125.5 392L2141.5 462.5L2225.5 479Z" fill="#F08C82"/>
<path d="M2126 365C2108.5 324.5 2043.5 294.5 2040 292L2029.5 480.5L2177 463C2165.83 443.833 2140 397.4 2126 365Z" fill="#FE8B6E"/>
<path d="M2090.5 453C2078.33 448.167 2049.5 434.8 2031.5 420L2008.5 440.5L2121.5 486L2090.5 453Z" fill="#F8B16F"/>
<path d="M2124 478.5C2107.2 481.7 2081.33 456.833 2070.5 444L2158 450C2228 454.8 2291.5 495.529 2301.5 522C2321.9 576 2424.33 613.5 2473 625.5L2420.5 621L2360.5 620C2322.9 626 2301.67 596.667 2291.5 583L2244.5 549L2124 478.5Z" fill="#FEE7A4"/>
<path d="M2108 471.5C2066 467.5 2039.83 414.833 2032 389L1995 512.5L2069.5 548C2129 564.5 2249.8 587.6 2257 548C2264.2 508.4 2213 493.833 2186.5 491.5C2181.33 486.833 2167.6 476.3 2154 471.5C2140.4 466.7 2117.67 469.5 2108 471.5Z" fill="#FF8665"/>
<path d="M3012.5 400.5C3070.1 312.1 3099.83 312.667 3107.5 324V479L2887 570.5L2865 505C2890.17 507 2954.9 488.9 3012.5 400.5Z" fill="#FFD893"/>
<path d="M3107.5 324C3127.67 320.5 3161.1 317.5 3133.5 333.5C3103.27 351.023 3255.74 272.592 3244.54 290.894C3297.02 249.316 3400.72 171.649 3377 212.5C3341 274.5 3497.5 37.5 3455 157C3412.5 276.5 3759 12 3681.5 93C3604 174 3891 -61 3797.5 60.5C3704 182 4164 -76 4069 26C3974 128 4554 -62.5 4307 46C4060 154.5 4866.5 -125 4715 -8.50001C4563.5 108 5152 -112.5 4857.5 33.5C4563 179.5 5625.5 -264 5229 140.5C4832.5 545 4921.5 457.5 4758 490C4627.2 516 3571.83 451.833 3060.5 416.5L3107.5 324Z" fill="#FFD893"/>
<path d="M2597.5 667.5C2540.3 669.1 2514 704.833 2508 722.5L3131 794L3079.5 399.5C3066.7 395.5 3041.5 430.167 3030.5 448C2994.9 490 2941.33 501.167 2919 501.5C2853.4 498.7 2819.33 509.333 2810.5 515C2790.67 526.833 2748.2 558.1 2737 588.5C2725.8 618.9 2698 641.5 2685.5 649C2645.9 634.2 2610.33 655.167 2597.5 667.5Z" fill="#FE9E6C"/>
<path d="M2305 593.5C2223.5 453.5 2029.5 499.5 2009 494.5L2066.5 643.5L2417 683C2407.67 661.167 2382.2 617.3 2355 616.5C2327.8 615.7 2310.33 600.833 2305 593.5Z" fill="#F25C5E"/>
<path d="M3079.5 399.5L3100.5 407C3141.83 361.333 3218.9 286.1 3196.5 350.5C3168.5 431 3333.5 207.5 3283.5 311.5C3233.5 415.5 3453 153 3386.5 268C3320 383 3614.5 88.5 3570 190C3525.5 291.5 3785 -26 3682.5 137C3580 300 4166 -74.5 3963.5 82.5C3761 239.5 4350.5 -80 4097.5 124C3844.5 328 4819 -222.5 4495 -3.50003C4171 215.5 4932 -91.5 4677.5 62C4423 215.5 5267 -249.5 5125.5 24C5017.13 233.468 5191.19 166.954 5275.26 125.901C5299.81 112.785 5315.15 104.631 5316.5 104C5318.26 103.181 5300.96 113.351 5275.26 125.901C5190.84 171.002 4997.46 274.768 4889 333L3060 570L3079.5 399.5Z" fill="#FE9E6C"/>
<path d="M2158 523.74C2100.91 457.571 2075.35 494.375 2071 492.809C2078.1 513.56 2089.85 559.369 2090.94 560.935C2092.02 562.501 2137.01 535.485 2158 523.74Z" fill="#FF8665"/>
<path d="M2267 616C2246.5 573.5 2243 586.5 2240 584.5L2223.5 621L2317.5 693.5L2503.5 726C2500.67 722 2490.8 708.1 2474 684.5C2457.2 660.9 2441 650.667 2435 648.5C2424.33 644.167 2398.4 637.3 2380 644.5C2361.6 651.7 2341 642.5 2333 637C2311.8 618.6 2284.17 621 2273 624.5L2267 616Z" fill="#F6EE99"/>
<path d="M2382.5 646.5C2360.1 655.3 2331.17 646.5 2319.5 641L2315.5 665.5L2493.5 732.5L2501 709.5C2487 708.5 2452.5 662.5 2449 660C2445.5 657.5 2410.5 635.5 2382.5 646.5Z" fill="#FC996C"/>
<path d="M2101.5 516C2067 491.5 2038 498 2030.5 496.5L2045.5 626L2298 680.5C2298.33 671.333 2297.3 647.6 2290.5 626C2283.7 604.4 2268.33 608.333 2261.5 613C2255.1 580.6 2216.17 560.833 2197.5 555C2167.1 513.4 2120.83 511.667 2101.5 516Z" fill="#F75D5D"/>
<path d="M2093.5 547.5C2055.5 508 2036 556 2032 558L2037.5 668.5L2602.5 860L2632.5 756L2637.5 709.5L2567 695C2556.33 693.667 2531.7 692.8 2518.5 700C2505.3 707.2 2480.67 707.667 2470 707C2452.8 657.8 2382.17 657.167 2349 663C2339 650.833 2315.1 628 2299.5 634C2283.9 640 2270 627.5 2265 620.5C2256.2 606.5 2239.33 605.667 2232 607C2200.8 611.4 2171.67 580.833 2161 565C2147.4 522.2 2110.33 535.5 2093.5 547.5Z" fill="#F75D5D"/>
<path d="M2691.5 701C2605.1 693 2545.83 750.333 2527 780L2674.5 849L3012.5 697.5L2999 566C2959.8 546.8 2911.67 567.333 2892.5 580C2823.7 564 2784.5 619 2773.5 648.5C2743.1 642.5 2706.17 681 2691.5 701Z" fill="#F45B5E"/>
<path d="M3040 541.5C3006.8 533.1 2986.17 572 2980 592.5L3080.5 578.5V516.5C3068.5 510.9 3048.5 530.833 3040 541.5Z" fill="#773F58"/>
<path d="M3104 536.5L3080.5 516.5L3077 549L3104 536.5Z" fill="#773F58"/>
<path d="M2828.5 629.5C2798.1 678.7 2726.5 734.667 2694.5 756.5L3121.5 824L3079 541.5C3069.4 536.7 3058.33 549.833 3054 557C3026.8 549.4 2995.33 569.167 2983 580C2955 566.8 2921.33 586.833 2908 598.5C2894.17 588.333 2858.9 580.3 2828.5 629.5Z" fill="#ED5C62"/>
<path d="M3165.5 495C3180.3 466.6 3114 514.167 3079 541.5L3062 572L3131 734L4667.5 681.5L5245 256.5C5125.5 280.833 4945.9 292.8 5183.5 146C5480.5 -37.5 4801 172 5110 65C5419 -42 4692.5 144 4919 14.5C5145.5 -115 4414.5 129 4637 14.5C4859.5 -100 4112.5 168 4306.5 69C4500.5 -30 3900 199 4081 122.5C4262 46 3708 259 3891.5 122.5C4075 -14 3588 283.5 3637 178.5C3686 73.5 3500 335 3540.5 264.5C3581 194 3313.5 456 3374.5 392C3435.5 328 3231.5 495 3289.5 430.5C3347.5 366 3147 530.5 3165.5 495Z" fill="#ED5C62"/>
<path d="M3204 547C3218 519.8 3133.17 553.333 3089 573.5L3052.5 649.5L3416 862L5108.5 386C5055.5 397 4987.5 395.3 5139.5 300.5C5329.5 182 5037.5 350.5 5151 196.5C5264.5 42.5 5007.5 303 5108.5 149C5209.5 -5 4817 272 4942.5 120.5C5068 -31 4735 190.5 4873.5 79C5012 -32.5 4407.5 241.5 4572.5 79C4737.5 -83.5 4202.5 224.5 4279.5 149C4356.5 73.5 4079 287.5 4175.5 149C4272 10.5 3888.5 316 3963 217.5C4037.5 119 3792.5 362.5 3877.5 273.5C3962.5 184.5 3589.5 364.5 3747 287.5C3904.5 210.5 3547 381.5 3611 273.5C3675 165.5 3381 471 3416 409.5C3451 348 3269.5 543 3304 478.5C3338.5 414 3186.5 581 3204 547Z" fill="#FF7F66"/>
<path d="M2786.5 715.5L2781.5 767.5L3064.5 724C3072.5 681 3088.2 593 3087 585C3085.8 577 3037.83 600.667 3014 613.5L2900 643.5L2786.5 715.5Z" fill="#F2595C"/>
<path d="M3203 601.5C3181.8 583.1 3112.5 603.833 3080.5 616.5L3068.5 672L3246 724L3547 748.5C3792.33 747.667 4306.4 741.6 4400 724C4493.6 706.4 5004 588.667 5247.5 532L5189 368C5172.83 368 5137.1 351.3 5123.5 284.5C5106.5 201 5036 347.5 5026.5 221C5017 94.5 4907.5 284.5 4912.5 181.5C4917.5 78.5 4740 243 4732.5 181.5C4725 120 4552.5 292 4554 181.5C4555.5 71 4474 295 4473 163.5C4472 32 4328 184.5 4356 107C4384 29.5 4100.5 342.5 4103 284.5C4105.5 226.5 4011.5 368 4004 307.5C3996.5 247 3857.5 411.5 3850 368C3842.5 324.5 3712.5 419.5 3717.5 368C3721.5 326.8 3605.5 411.167 3547 458.5H3432.5L3315.5 545.5C3286.83 571.833 3224.2 619.9 3203 601.5Z" fill="#FEEAAB"/>
<path d="M2681 729.5C2723.17 728.833 2815.8 713.3 2849 656.5C2857.83 641.5 2889 613.3 2943 620.5C2951.5 621.633 2970.8 623.6 2980 610C2986 598 3012.6 572.5 3071 566.5L3089 573.5L3084.5 610L3073.5 604C3052 611 3014 626.5 3003.5 635.5C2997.08 641 2985 649.8 2965 645C2943 639.72 2904.87 653 2880 684.5C2868.35 699.25 2837.44 728.437 2801.9 734.947C2820.26 731.755 2851.34 721.843 2873 699.5C2898.2 673.5 2970.5 683 3003.5 691L2943 775L2710.5 755.5L2681 729.5Z" fill="#FF7F66"/>
<path d="M2276.5 660C2261.7 628.8 2216.33 630 2195.5 634.5L2269 711.5L2335.5 714.5C2322 709.333 2291.3 691.2 2276.5 660Z" fill="#FFA06E"/>
<path d="M2766.5 743.5C2760 739 2706 740.5 2704 740.5L2801.5 811L2845.5 743.5C2821.33 745 2771.7 747.1 2766.5 743.5Z" fill="#F4595D"/>
<path d="M1893.5 226C1878 207.5 1992 264 2041 293L2056.5 317.5L2085.5 580.5L1411.5 644C991.667 527.833 95.2 257.8 -132 107C-416 -81.5 612.5 350.5 -9.00015 30.5C-630.5 -289.5 1195.5 280 619.5 30.5C43.4999 -219 1841 350.5 1282.5 113C724 -124.5 1766.5 248.5 1665 125.5C1570.74 11.2731 1862.42 237.277 1891.69 260.487C1880.12 249.503 1908.33 243.705 1893.5 226Z" fill="#FE8B6E"/>
<path d="M2543 749C2516.6 723 2471 735.5 2451.5 745V789.5L2825 831L2878.5 748.5C2844.67 768.5 2768.6 796.9 2735 750.5C2701.4 704.1 2617.33 730.167 2579.5 749C2578.33 759.833 2569.4 775 2543 749Z" fill="#FF9F6D"/>
<path d="M1985.5 362C1970.3 330.8 2057.83 440.333 2079.5 462.5L2056.5 585.5C1448 585.5 185.5 521.5 165.5 521.5C140.5 521.5 340 320.5 -110.5 -59C-510.693 -396.122 347.385 14.4597 392.949 66.5485C555.291 100.172 981.9 197.108 583 74C43.4999 -92.5 1383 268 901.5 80C420 -108 2050 496 1672.5 245C1295 -6 2004.5 401 1985.5 362Z" fill="#FF8665"/>
<path d="M1754.5 400C1694.5 301.5 1878 417 2080 504.5L2099.5 542L2202.5 787L686.5 653C488.333 628 74.7998 574.1 5.99983 558.5C-80.0002 539 -180.5 372 -126.5 355C-72.5002 338 87.9998 259 -89.0002 107.5C-266 -44 590.5 394 65.4997 39C-459.5 -316 1012.5 408 454 129.5C-104.5 -149 1387 416.5 976 206C565 -4.50003 1589 400 1473 303.5C1357 207 1814.5 498.5 1754.5 400Z" fill="#F75D5D"/>
<path d="M2235 669C2189.8 590.6 2086.17 571 2040 571L2069 851L3091.5 822L3080.5 616.5C3056.83 624.5 3004.5 646.7 2984.5 671.5C2964.5 696.3 2932.83 704.5 2919.5 705.5C2896 706.333 2844.5 715.9 2826.5 747.5C2808.5 779.1 2745.33 783.667 2716 782C2701.17 787.333 2665.6 792 2642 768C2618.4 744 2585.83 738.333 2572.5 738.5C2567.67 738.5 2550.8 741.5 2522 753.5C2493.2 765.5 2470 748.5 2462 738.5C2429.6 700.1 2379.83 700.5 2359 705.5C2347 713 2325.5 708 2322.5 708C2281.7 720.8 2247.17 687.333 2235 669Z" fill="#FEEAAB"/>
<path d="M3131 657L3080 651L3055 699L3196.5 867.5L5198 802L5172 355L5004.5 455.5L4786 342.5L4606 372C4552.67 440 4418.8 529.3 4310 342.5C4201.2 155.7 4151.33 294 4140 386.5C4067.17 466 3931.6 610.3 3972 551.5C4012.4 492.7 3955.17 485.333 3921.5 489C3964.3 453.4 3827 451.833 3753 455.5C3751.4 396.7 3611.33 465.333 3541.5 507C3543.5 455.8 3448.33 500.333 3400.5 529C3349.3 485.4 3316.5 574.833 3306.5 625C3282.83 636.667 3227.7 654.9 3196.5 634.5C3165.3 614.1 3139.83 641 3131 657Z" fill="#FFA571"/>
<path d="M1903.5 621.5C1903.67 612.5 1931.3 590 2040.5 572L2055 631C2026.5 636.333 1969.2 647 1968 647C1966.8 647 1924.5 630 1903.5 621.5Z" fill="#FEEAAB"/>
<path d="M1869.5 495.5C1839.5 439 1906 532 2050.5 573.5L1986.5 707L11.1954 330.228C11.3915 330.943 10.9346 330.798 10 330L11.1954 330.228C9.71286 324.82 -29.0931 270.24 -181 77C-396 -196.5 228 350.5 -23.5002 43.5C-275 -263.5 793.5 449.5 373.5 113C-46.4999 -223.5 1426 462.5 1024 245.5C622 28.5 1879 618.5 1595.5 413.5C1312 208.5 1899.5 552 1869.5 495.5Z" fill="#FEEAAB"/>
<path d="M2152.5 658.5C2150.9 614.9 2063.83 602.333 2023.5 601.5L2073 894.5L3080 864.5V650.5C3056.4 648.9 3030.5 676.167 3020.5 690C3007 706.833 2968.7 739.8 2923.5 737C2878.3 734.2 2852.33 751.833 2845 761C2816.6 794.2 2775 807.56 2758 803.5C2724.5 795.5 2701.5 811.242 2690.5 815.5C2678.1 820.3 2654 809.5 2643.5 803.5C2617.67 787.333 2558.3 759.4 2527.5 777C2496.7 794.6 2465.33 798.333 2453.5 798C2453.9 789.2 2432 776.333 2421 771C2419.4 729 2355.33 728.167 2323.5 733L2299.5 725.5C2276.33 724.833 2226.6 716.7 2213 689.5C2199.4 662.3 2167 657.5 2152.5 658.5Z" fill="#FFA571"/>
<path d="M1736.5 500.5C1628.5 386 1986 608.5 1994.5 615L2079 687L88 504.5L-85 257.5C-50.1667 219.333 21.7999 152.2 30.9999 189C42.4999 235 793.5 394 272.5 236.5C-248.5 79 1350.5 525.5 905.5 305C460.5 84.5 1615 590 1367.5 419C1120 248 1844.5 615 1736.5 500.5Z" fill="#FFA571"/>
<path d="M1935 611C1963.33 608 2020.8 602 2024 602L2070 626.5L2071.5 662C2025.5 656.833 1931.9 646 1925.5 644C1919.1 642 1929.17 621.167 1935 611Z" fill="#FFA571"/>
<path d="M2090 658C2079.5 654 2045.5 650 2040.5 648.5L2031 730.5L2421.5 958L3074 894L3079.5 677.5C3046.7 680.3 3014.83 710.333 3003 725L2951.5 768.5C2912.7 746.1 2874 770.167 2859.5 785C2773.1 876.2 2677.17 855.667 2640 834C2595.2 802.8 2543.67 812.667 2523.5 821.5C2457.5 852.7 2368.33 805.167 2332 777.5C2277.2 772.3 2233.5 728.667 2218.5 707.5L2167.5 688C2145.17 679.333 2098.4 661.2 2090 658Z" fill="#FE6D5C"/>
<path d="M2510.5 837.5C2467.3 865.5 2418.5 853.5 2399.5 844L2394 910.5L2817.5 991.5L2852.5 833L2743 869L2714.5 865.5C2673.7 882.7 2628.17 864 2610.5 852.5C2560.5 820.9 2523 829.333 2510.5 837.5Z" fill="#FF7D67"/>
<path d="M1959.5 624.5C1974 629.5 2010.5 641.3 2040.5 648.5L2062 690L2015.5 926.5C1722 918.167 1126.4 898.8 1092 888C1049 874.5 578 881 476.5 863C375 845 -80.5003 727 -80.5003 704.5C-80.5003 682 -76.0003 512 -80.5003 426C-85.0003 340 -33.0003 401.5 -3.50031 401.5C-49.0003 263 98.4997 516.5 107.5 426C116.5 335.5 200 496.5 182 381C164 265.5 322.5 473.5 324.5 401.5C326.5 329.5 562.5 496.5 578 439.5C593.5 382.5 786.5 529.5 786.5 473.5C786.5 417.5 902 529.5 976.5 496.5C1051 463.5 1300 605.5 1275 529.5C1250 453.5 1473.5 640.5 1441 540C1408.5 439.5 1593 654.5 1640.5 568.5C1688 482.5 1842.5 681 1866.5 611.5C1885.7 555.9 1936.5 597 1959.5 624.5Z" fill="#FE6D5C"/>
<path d="M2217.5 742C2203.1 744.4 2187.5 741 2181.5 739V833.5L2396.5 875L2322 806C2258.8 806 2226 763.333 2217.5 742Z" fill="#FEA06D"/>
<path d="M2037 701.5V745L2103 1012H2616.5L2836 941.5C2807.5 915.333 2741.9 870.3 2707.5 899.5C2673.1 928.7 2623.5 901 2603 883.5C2591.83 869 2557.7 845.3 2510.5 866.5C2463.3 887.7 2429.5 866 2418.5 852.5C2411.5 842.833 2390.5 826.2 2362.5 837C2334.5 847.8 2308.17 827.167 2298.5 815.5C2232.1 810.3 2188.5 741.667 2175 708C2102.2 752.4 2070 718.167 2063 695.5L2037 701.5Z" fill="#8D495E"/>
<path d="M2234.5 822C2210.5 772.4 2141.17 780.333 2109.5 790.5V795L2128.5 938C2301.5 992.5 2648.2 1079.1 2651 989.5C2653.8 899.9 2569.5 891.167 2527 898C2495.5 906.333 2430.5 918 2422.5 898C2414.5 878 2366.5 875.667 2343.5 877C2317.17 879.333 2258.5 871.6 2234.5 822Z" fill="#AE6171"/>
<path d="M2092.5 763C2075.3 747.4 2047 737.5 2035 734.5L2026.5 1010H2727.5L2713.5 967C2687.67 976.833 2632.6 991.8 2619 973C2605.4 954.2 2548.33 944.833 2521.5 942.5C2503.33 941.833 2464 936.7 2452 921.5C2440 906.3 2392 908.167 2369.5 911C2331.5 910.167 2251.7 897.1 2236.5 851.5C2221.3 805.9 2167.17 790.5 2142 788.5C2132.67 786.5 2109.7 778.6 2092.5 763Z" fill="#6B3E55"/>
<path d="M3239.5 671.5C3222.7 644.7 3125.83 664.333 3079.5 677.5L3051.5 744L3170 926L4250.5 891.5L5150.5 879C5166.17 842.5 5191.4 748.9 5167 666.5C5142.6 584.1 5064.83 608.167 5029 630.5C4993.17 646.167 4888.3 652.6 4755.5 553C4622.7 453.4 4616.17 594.5 4629.5 677.5C4561.33 704.167 4407.5 732.1 4337.5 630.5C4267.5 528.9 4169.33 619.5 4129 677.5C4090.83 718 3998 769.5 3932 651.5C3866 533.5 3824.17 588.333 3811.5 630.5C3756.83 658.5 3644.2 689.6 3631 590C3617.8 490.4 3514.5 548.5 3464.5 590C3396.5 628.333 3256.3 698.3 3239.5 671.5Z" fill="#FE6D5C"/>
<path d="M1971.5 717L2037 701.5L2042.5 743L1971.5 717Z" fill="#8D495E"/>
<path d="M1887.5 713.5C1845.5 658.3 1977.33 707 2044 737L2047.5 781.5C2036.17 849.833 2010.5 986.1 1998.5 984.5C1986.5 982.9 1622.5 995.167 1442 1001.5C948.167 979.5 -47.8001 934.4 -81.0002 930C-114.2 925.6 -52.1669 849.167 -17.0002 811.5C-207 777.5 -75.5002 631 -81.0002 603C-86.5002 575 -148.5 567 59.9998 571C121.84 572.186 155.751 573.813 173.21 575.513C182.457 527.157 335.93 560.113 415.5 584C528.5 473 597.5 616 633.5 616C570.927 529.666 794.323 607.097 917.329 657.977C918.481 655.466 919.703 652.809 921 650C957 572 1057.67 636.167 1103.5 678C1071.9 605.6 1303.33 647.833 1423 678C1521.17 704.333 1705.2 744.1 1656 692.5C1594.5 628 1940 782.5 1887.5 713.5Z" fill="#6B3E55"/>
<path d="M3203 749.5L3087.5 717L3037.5 938L2937 1205L5151 1160L5248 889.5L5131 761H5073L4853 674.5L4778 761L4710 674.5L4625.5 717L4411.5 819C4369.5 770.833 4281.4 669.2 4265 648C4248.6 626.8 4230.5 706.833 4223.5 749.5C4175.33 753.333 4066.9 770.4 4018.5 808C3958 855 3765 724.5 3720 717C3684 711 3553.17 777.167 3523 717C3449.17 735.667 3366.2 675.7 3357 674.5C3347.8 673.3 3263.67 777.167 3203 749.5Z" fill="#021C35"/>
<path d="M1896 788.5C1900 692.9 1998 748.667 2046.5 788.5L2125.5 913L2205.5 1265C1479.83 1244.83 15.8998 1199.5 -34.5002 1179.5C-97.5002 1154.5 -79.5002 1001 -67.0002 983C-54.5002 965 -7.00019 817.5 -4.50019 832.5C-2.00019 847.5 -2.0002 875 63.4998 898C129 921 101.5 898 106.5 875C111.5 852 126.5 850 224.5 817.5C302.9 791.5 292.5 845 277.5 875H352.5C385 875 375.5 875 390.5 898C405.5 921 478.5 938 513.5 935.5C548.5 933 556.5 898 621.5 832.5C686.5 767 699.5 788.5 752.5 788.5C805.5 788.5 777.5 832.5 775 875C772.5 917.5 915.5 913 928.5 898C941.5 883 963.5 875 983.5 898C999.5 916.4 1074.17 915.667 1109.5 913C1113.67 900.333 1125 866.5 1137 832.5C1152 790 1262.5 744.5 1318 764.5C1373.5 784.5 1360.5 739.5 1370.5 797C1380.5 854.5 1438.5 890 1438.5 875C1438.5 863 1549.17 796.333 1604.5 764.5C1652.35 767.258 1734.6 774.215 1744.34 782.879C1767.56 770.758 1816.33 749.551 1826 756C1841 766 1891 908 1896 788.5Z" fill="#021C35"/>
<path d="M2742.5 880C2742.5 910.4 2686.83 957.333 2659 977L3082 869L3074.5 729C3039.7 756.6 3003.67 723.5 2990 703.5H2978C2980 719.5 2945.17 756.167 2927.5 772.5C2909.5 806.9 2877.33 808.167 2863.5 804.5L2812.5 872C2797.7 896.4 2759.67 887.5 2742.5 880Z" fill="#2B5C7D"/>
<path d="M2967 767L2929.5 858.5L3082 822L3075 732.5C3068.6 783.7 3051 765.5 3043 750C3036.2 736.4 3024.83 731.333 3020 730.5C3001.2 724.1 2976.83 752.167 2967 767Z" fill="#13476E"/>
<path d="M2178.5 870.5C2148 828 2087.5 794 2046.5 788.5L2033 1049.5H3087.5V717C3087.17 716.333 3084.6 722.7 3077 753.5C3069.4 784.3 3042.5 800 3031.5 796C3017.1 794.4 2978.5 813 2956 821C2914.5 834.5 2891 849.333 2880 858.5C2842.4 898.1 2817 911.667 2809 913.5C2784.2 916.3 2764 923.333 2757 926.5C2736.2 939.7 2702.67 954 2688.5 959.5L2584 986.5C2556.4 964.1 2522.83 970.5 2509.5 976.5C2465.1 1002.5 2444 981.667 2439 968C2437.4 965.2 2432.67 962.167 2430.5 961L2418.5 957.5C2401.3 955.1 2382 941.5 2374.5 935C2332.5 886.6 2280 879.833 2259 882.5C2210.6 895.7 2185.17 880 2178.5 870.5Z" fill="#021C35"/>
</g>
<defs>
<linearGradient id="paint0_linear_1_117" x1="2552" y1="175.5" x2="2552" y2="829.5" gradientUnits="userSpaceOnUse">
<stop offset="0.288891" stop-color="#244362"/>
<stop offset="0.336158" stop-color="#4F5671"/>
<stop offset="0.386993" stop-color="#856276"/>
<stop offset="0.445854" stop-color="#A46270"/>
<stop offset="0.508283" stop-color="#D47770"/>
<stop offset="0.584981" stop-color="#FF9174"/>
<stop offset="0.665247" stop-color="#FFA26F"/>
<stop offset="0.741945" stop-color="#FFA970"/>
<stop offset="0.78925" stop-color="#FCAC6F"/>
</linearGradient>
<linearGradient id="paint1_linear_1_117" x1="2557" y1="368" x2="2557" y2="648" gradientUnits="userSpaceOnUse">
<stop offset="0.0237834" stop-color="#AE676F"/>
<stop offset="0.188444" stop-color="#C1686C"/>
<stop offset="0.398328" stop-color="#CB6C6A"/>
<stop offset="0.580382" stop-color="#FF917A"/>
<stop offset="0.827372" stop-color="#FB9B6B"/>
<stop offset="1" stop-color="#FEAC72"/>
</linearGradient>
<linearGradient id="paint2_linear_1_117" x1="2557" y1="388" x2="2557" y2="628" gradientUnits="userSpaceOnUse">
<stop stop-color="#E3706D"/>
<stop offset="0.0568518" stop-color="#EB6B68"/>
<stop offset="0.192742" stop-color="#ED7368"/>
<stop offset="0.500865" stop-color="#F8886B"/>
<stop offset="0.9028" stop-color="#FEA972"/>
<stop offset="0.978021" stop-color="#FEAC72"/>
</linearGradient>
<linearGradient id="paint3_linear_1_117" x1="2447" y1="72.5" x2="2446.5" y2="106.15" gradientUnits="userSpaceOnUse">
<stop stop-color="#FFA07C"/>
<stop offset="1" stop-color="#FFE2B9"/>
</linearGradient>
<linearGradient id="paint4_linear_1_117" x1="2827.5" y1="65.5" x2="2376" y2="303.5" gradientUnits="userSpaceOnUse">
<stop offset="0.0990326" stop-color="#E7997D"/>
<stop offset="0.14352" stop-color="#DF9081"/>
<stop offset="0.225754" stop-color="#D48D7C"/>
<stop offset="0.338749" stop-color="#B88A88"/>
<stop offset="0.45905" stop-color="#BC8580"/>
<stop offset="0.607767" stop-color="#AD8387"/>
<stop offset="0.747804" stop-color="#A18488"/>
<stop offset="0.881015" stop-color="#807687"/>
<stop offset="1" stop-color="#3C6888"/>
</linearGradient>
<linearGradient id="paint5_linear_1_117" x1="2879" y1="-13" x2="2361" y2="242.5" gradientUnits="userSpaceOnUse">
<stop stop-color="#437290"/>
<stop offset="0.0831676" stop-color="#45718A"/>
<stop offset="0.152104" stop-color="#46738B"/>
<stop offset="0.249572" stop-color="#487289"/>
<stop offset="0.346788" stop-color="#50718C"/>
<stop offset="0.445276" stop-color="#4B748E"/>
<stop offset="0.5485" stop-color="#4B738D"/>
<stop offset="0.644396" stop-color="#4D748E"/>
<stop offset="0.736107" stop-color="#436F8A"/>
<stop offset="0.807398" stop-color="#396683"/>
<stop offset="0.89392" stop-color="#235377"/>
<stop offset="0.937486" stop-color="#1B4C6D"/>
<stop offset="0.972929" stop-color="#174869"/>
<stop offset="1" stop-color="#114263"/>
</linearGradient>
<linearGradient id="paint6_linear_1_117" x1="3074.5" y1="6.5" x2="2534.5" y2="363" gradientUnits="userSpaceOnUse">
<stop offset="0.0198024" stop-color="#0D3556"/>
<stop offset="0.0489111" stop-color="#174060"/>
<stop offset="0.0855192" stop-color="#154062"/>
<stop offset="0.132302" stop-color="#1E4C6D"/>
<stop offset="0.173469" stop-color="#2D5A79"/>
<stop offset="0.204449" stop-color="#406E8F"/>
<stop offset="0.237679" stop-color="#3F6C8B"/>
<stop offset="0.285367" stop-color="#47708E"/>
<stop offset="0.355433" stop-color="#4F738E"/>
<stop offset="0.424127" stop-color="#60798D"/>
<stop offset="0.477906" stop-color="#6F7C8D"/>
<stop offset="0.536339" stop-color="#7B7E8F"/>
<stop offset="0.630075" stop-color="#8D838E"/>
<stop offset="0.727837" stop-color="#9F848B"/>
<stop offset="0.825295" stop-color="#8C8899"/>
<stop offset="0.897068" stop-color="#8F848A"/>
<stop offset="0.947235" stop-color="#857C91"/>
<stop offset="1" stop-color="#70758B"/>
</linearGradient>
<linearGradient id="paint7_linear_1_117" x1="1993.71" y1="-51.6636" x2="2238.35" y2="249.794" gradientUnits="userSpaceOnUse">
<stop stop-color="#082F4E"/>
<stop offset="0.0908285" stop-color="#0A3150"/>
<stop offset="0.246149" stop-color="#093252"/>
<stop offset="0.389152" stop-color="#093759"/>
<stop offset="0.493469" stop-color="#1F5172"/>
<stop offset="0.645317" stop-color="#527591"/>
<stop offset="0.765657" stop-color="#71778C"/>
<stop offset="0.858004" stop-color="#998985"/>
<stop offset="0.964855" stop-color="#9F6B6F"/>
</linearGradient>
<linearGradient id="paint8_linear_1_117" x1="2042.5" y1="11" x2="2310.5" y2="317.5" gradientUnits="userSpaceOnUse">
<stop offset="0.0273823" stop-color="#103B5D"/>
<stop offset="0.089758" stop-color="#245073"/>
<stop offset="0.215062" stop-color="#3B6889"/>
<stop offset="0.303541" stop-color="#4D768F"/>
<stop offset="0.419709" stop-color="#677B93"/>
<stop offset="0.50723" stop-color="#8B8091"/>
<stop offset="0.569951" stop-color="#A28388"/>
<stop offset="0.656853" stop-color="#E48476"/>
<stop offset="0.736061" stop-color="#F88574"/>
<stop offset="0.818702" stop-color="#FB8C8A"/>
<stop offset="0.911723" stop-color="#FD9071"/>
<stop offset="0.962691" stop-color="#FFA16B"/>
</linearGradient>
<linearGradient id="paint9_linear_1_117" x1="3084.5" y1="108" x2="2764" y2="330.5" gradientUnits="userSpaceOnUse">
<stop offset="0.0537212" stop-color="#0F3B58"/>
<stop offset="0.136509" stop-color="#0C395A"/>
<stop offset="0.249646" stop-color="#0F3D5F"/>
<stop offset="0.385295" stop-color="#215374"/>
<stop offset="0.494439" stop-color="#215471"/>
<stop offset="0.606183" stop-color="#436F88"/>
<stop offset="0.704994" stop-color="#787E8C"/>
<stop offset="0.856497" stop-color="#DA9484"/>
<stop offset="1" stop-color="#D8B6AC"/>
</linearGradient>
<linearGradient id="paint10_linear_1_117" x1="3084.5" y1="136.5" x2="2718" y2="419" gradientUnits="userSpaceOnUse">
<stop offset="0.0556095" stop-color="#6C778B"/>
<stop offset="0.138493" stop-color="#6D8091"/>
<stop offset="0.238739" stop-color="#8D838C"/>
<stop offset="0.348255" stop-color="#B78586"/>
<stop offset="0.433451" stop-color="#E0827A"/>
<stop offset="0.520828" stop-color="#F78373"/>
<stop offset="0.630039" stop-color="#FF936D"/>
<stop offset="0.731681" stop-color="#FE9E76"/>
<stop offset="0.813561" stop-color="#F9A87C"/>
<stop offset="1" stop-color="#FAA76E"/>
</linearGradient>
<linearGradient id="paint11_linear_1_117" x1="3077" y1="207" x2="2884" y2="380" gradientUnits="userSpaceOnUse">
<stop offset="0.0807094" stop-color="#FB886D"/>
<stop offset="0.207197" stop-color="#FF8C71"/>
<stop offset="0.318906" stop-color="#FC8F70"/>
<stop offset="0.451798" stop-color="#FA8E64"/>
<stop offset="0.578563" stop-color="#FFA176"/>
<stop offset="0.687376" stop-color="#F3A565"/>
<stop offset="0.82569" stop-color="#F6B66E"/>
<stop offset="1" stop-color="#FFB473"/>
</linearGradient>
<linearGradient id="paint12_linear_1_117" x1="3001" y1="355.5" x2="2765" y2="471.5" gradientUnits="userSpaceOnUse">
<stop stop-color="#1F3C5F"/>
<stop offset="0.0833431" stop-color="#275576"/>
<stop offset="0.181246" stop-color="#4C6E89"/>
<stop offset="0.317691" stop-color="#727A8D"/>
<stop offset="0.500702" stop-color="#AA7D84"/>
<stop offset="0.693225" stop-color="#EF877A"/>
<stop offset="0.842569" stop-color="#FF956E"/>
<stop offset="1" stop-color="#FFB89C"/>
</linearGradient>
<clipPath id="clip0_1_117">
<rect width="5120" height="1024" fill="white"/>
</clipPath>
</defs>
</svg>
